<?xml version="1.0" encoding="UTF-8"?>
<svg version="1.1" xmlns="http://www.w3.org/2000/svg" width="441" height="450">
<path d="M0 0 C117.48 0 234.96 0 356 0 C360 9 360 9 362 16 C240.56 16 119.12 16 -6 16 C-4.02 10.72 -2.04 5.44 0 0 Z " fill="#B29241" transform="translate(42,330)"/>
<path d="M0 0 C124.08 0 248.16 0 376 0 C381 12 381 12 381 15 C253.62 15 126.24 15 -5 15 C-3.48554367 9.95181223 -1.95740073 4.89350183 0 0 Z " fill="#B29241" transform="translate(32,356)"/>
<path d="M0 0 C104.61 0 209.22 0 317 0 C318.98 5.61 320.96 11.22 323 17 C214.43 17 105.86 17 -6 17 C-5 12 -5 12 0 0 Z " fill="#B29241" transform="translate(62,278)"/>
<path d="M0 0 C111.21 0 222.42 0 337 0 C342 14 342 14 342 16 C227.16 16 112.32 16 -6 16 C-4.02 10.72 -2.04 5.44 0 0 Z " fill="#B29241" transform="translate(52,304)"/>
<path d="M0 0 C71.94 0 143.88 0 218 0 C220.91616343 6.56136772 223.54620971 13.25207671 226 20 C149.11 20 72.22 20 -7 20 C-4 10 -4 10 0 0 Z " fill="#B29241" transform="translate(111,147)"/>
<path d="M0 0 C0.77138587 0.00291284 1.54277174 0.00582568 2.33753294 0.00882679 C3.15101428 0.00797237 3.96449563 0.00711794 4.80262792 0.00623763 C7.54963126 0.00458033 10.29657458 0.01010824 13.04357237 0.01555592 C15.00428606 0.01583776 16.96499985 0.01568011 18.92571348 0.01511341 C24.26640219 0.01482533 29.60706866 0.02072379 34.94775218 0.02768737 C40.52249201 0.03391913 46.0972323 0.03452457 51.67197508 0.03571278 C62.23652976 0.03882662 72.80107416 0.04704072 83.36562431 0.05706227 C95.38960115 0.06822176 107.41357846 0.07373344 119.43755919 0.0787577 C144.17920146 0.08922329 168.92083458 0.10682376 193.66246885 0.12908131 C194.8343932 3.25213504 195.99910761 6.3778287 197.16246885 9.50408131 C197.49633604 10.39353443 197.83020323 11.28298756 198.1741876 12.19939381 C198.49000791 13.05017506 198.80582823 13.90095631 199.13121885 14.77751881 C199.42448057 15.56304127 199.71774229 16.34856373 200.01989073 17.1578899 C200.66246885 19.12908131 200.66246885 19.12908131 200.66246885 21.12908131 C130.04246885 21.12908131 59.42246885 21.12908131 -13.33753115 21.12908131 C-5.94831538 0.01703626 -5.94831538 0.01703626 0 0 Z " fill="#B29241" transform="translate(126.33753114938736,120.8709186911583)"/>
<path d="M0 0 C58.74 0 117.48 0 178 0 C182.70588235 10.58823529 182.70588235 10.58823529 184.25 14.375 C184.58515625 15.18710938 184.9203125 15.99921875 185.265625 16.8359375 C186 19 186 19 186 22 C121.98 22 57.96 22 -8 22 C-5.5324326 14.59729779 -2.8011616 7.28302016 0 0 Z " fill="#B29241" transform="translate(131,94)"/>
<path d="M0 0 C78.54 0 157.08 0 238 0 C245 16.8 245 16.8 245 20 C233.55155792 20.18573322 222.10347686 20.32769562 210.65383244 20.41449738 C205.33663101 20.45616828 200.02046372 20.51264746 194.70385742 20.60351562 C189.56850023 20.69073214 184.43413471 20.738335 179.2980938 20.75901794 C177.34323967 20.77374811 175.38843709 20.8025142 173.43400764 20.84584045 C156.19664758 21.21260632 156.19664758 21.21260632 150.43017578 16.07763672 C149.26994537 14.73276929 148.12382284 13.37543638 147 12 C135.98770459 5.10233492 123.22369433 2.56125899 110.44140625 4.9765625 C106.27480651 6.21566481 102.46415673 7.84624977 98.5625 9.75 C97.56887451 10.23412354 97.56887451 10.23412354 96.55517578 10.72802734 C93.06818629 12.54974733 91.05214896 13.93777633 88.44892883 17.04391479 C85.24216267 20.25597073 82.86619768 20.69959432 78.41503906 20.746521 C77.57634277 20.72494934 76.73764648 20.70337769 75.87353516 20.68115234 C74.52622818 20.68246658 74.52622818 20.68246658 73.15170288 20.68380737 C70.19659031 20.67964267 67.24377616 20.63304403 64.2890625 20.5859375 C62.23498779 20.57474138 60.18089702 20.56620316 58.12680054 20.56021118 C52.73084976 20.53734578 47.33587415 20.47844156 41.94030762 20.4119873 C36.43039135 20.3505158 30.92031688 20.32318573 25.41015625 20.29296875 C14.60634332 20.22869669 3.80325287 20.12634434 -7 20 C-6.58990286 18.53980564 -6.17140121 17.08197228 -5.75 15.625 C-5.51796875 14.81289062 -5.2859375 14.00078125 -5.046875 13.1640625 C-3.57069667 8.70247874 -1.74533198 4.36332996 0 0 Z " fill="#B29241" transform="translate(101,173)"/>
<path d="M0 0 C52.47 0 104.94 0 159 0 C161.64 7.26 164.28 14.52 167 22 C109.25 22 51.5 22 -8 22 C-5 12 -5 12 0 0 Z " fill="#B29241" transform="translate(141,68)"/>
<path d="M0 0 C2.41691017 -0.36914349 2.41691017 -0.36914349 5.51748657 -0.36076355 C6.68980331 -0.36488754 7.86212006 -0.36901154 9.06996155 -0.3732605 C10.36252365 -0.36247467 11.65508575 -0.35168884 12.98681641 -0.34057617 C14.35655193 -0.33973029 15.72628882 -0.34020427 17.09602356 -0.34190369 C20.82111136 -0.34276661 24.54591105 -0.32509308 28.27093172 -0.30418181 C32.16134981 -0.28546435 36.05177406 -0.28366848 39.94223022 -0.28010559 C47.31229032 -0.27077058 54.68221736 -0.24613721 62.05221879 -0.21605712 C70.44144592 -0.1825583 78.83067931 -0.1660385 87.21995664 -0.15097082 C104.48004813 -0.11958884 121.74001001 -0.06680018 139 0 C140.33871641 3.45627381 141.67005392 6.91534297 143 10.375 C143.3815625 11.35984375 143.763125 12.3446875 144.15625 13.359375 C144.5171875 14.30039062 144.878125 15.24140625 145.25 16.2109375 C145.58515625 17.08024902 145.9203125 17.94956055 146.265625 18.84521484 C147 21 147 21 147 23 C95.52 23 44.04 23 -9 23 C-2 3 -2 3 0 0 Z " fill="#B29241" transform="translate(151,42)"/>
<path d="M0 0 C39.6 0 79.2 0 120 0 C128 20 128 20 128 23 C83.12 23 38.24 23 -8 23 C-5.69 16.4 -3.38 9.8 -1 3 C-0.67 2.01 -0.34 1.02 0 0 Z " fill="#B29241" transform="translate(160,16)"/>
<path d="M0 0 C14.48187066 -0.18540561 28.96345874 -0.32753146 43.44627476 -0.41449738 C50.17138196 -0.45570202 56.89573701 -0.51184833 63.62036133 -0.60351562 C70.11081351 -0.69047516 76.60048474 -0.73828238 83.09147453 -0.75901794 C85.56709018 -0.77379352 88.04266333 -0.80264772 90.51794624 -0.84584045 C93.98759227 -0.90397346 97.45401715 -0.91191053 100.92407227 -0.90820312 C101.94618805 -0.93696533 102.96830383 -0.96572754 104.02139282 -0.99536133 C108.14892297 -0.94768132 110.89064954 -0.91409652 114.15069389 1.77215576 C115.89950832 3.7768753 117.43942164 5.84867859 119 8 C121.38848885 9.97418721 121.38848885 9.97418721 123.6875 11.3125 C126.60030953 13.11813149 129.23691869 14.92768902 132 17 C86.46 17 40.92 17 -6 17 C-4.02 11.39 -2.04 5.78 0 0 Z " fill="#B29241" transform="translate(71,252)"/>
<path d="M0 0 C1.06416138 -0.00116821 2.12832275 -0.00233643 3.22473145 -0.00354004 C6.72677127 0.00201417 10.22536517 0.0641463 13.72680664 0.12695312 C16.16059001 0.14188097 18.59439747 0.15326542 21.0282135 0.16125488 C27.42228 0.19174506 33.81488391 0.27028503 40.20837402 0.35888672 C46.73710343 0.44084324 53.26607006 0.47728755 59.79516602 0.51757812 C72.59722095 0.60327903 85.39826399 0.73820544 98.19946289 0.90820312 C99.20365926 3.36489782 100.2029679 5.82338666 101.19946289 8.28320312 C101.48563477 8.981875 101.77180664 9.68054688 102.06665039 10.40039062 C104.19946289 15.68164062 104.19946289 15.68164062 104.19946289 17.90820312 C59.64946289 17.90820312 15.09946289 17.90820312 -30.80053711 17.90820312 C-27.38418223 15.34593696 -23.95081341 13.11097452 -20.31225586 10.89648438 C-17.80600902 9.09436945 -17.80600902 9.09436945 -16.40370846 6.99596405 C-11.60149444 0.46646069 -7.86380744 -0.22753118 0 0 Z " fill="#B29241" transform="translate(270.800537109375,251.091796875)"/>
<path d="M0 0 C2.18264961 -0.36914349 2.18264961 -0.36914349 4.94802856 -0.36076355 C6.51718521 -0.36694954 6.51718521 -0.36694954 8.11804199 -0.3732605 C9.27034302 -0.36247467 10.42264404 -0.35168884 11.60986328 -0.34057617 C12.81959808 -0.34101425 14.02933289 -0.34145233 15.27572632 -0.34190369 C18.59803394 -0.34016858 21.91978609 -0.32509732 25.24199533 -0.30418181 C28.71200336 -0.28546021 32.18201835 -0.28366815 35.65206909 -0.28010559 C42.22527769 -0.27077179 48.79833706 -0.24614009 55.37147987 -0.21605712 C62.85382957 -0.18255452 70.33618631 -0.16603755 77.81859231 -0.15097082 C93.21248138 -0.11959158 108.60622146 -0.06680532 124 0 C123.57388649 1.75280733 123.13360733 3.50217435 122.6875 5.25 C122.44386719 6.22453125 122.20023437 7.1990625 121.94921875 8.203125 C120.97240569 11.08130668 120.16346918 12.86695875 118 15 C115.79638672 15.50057125 115.79638672 15.50057125 113.1796875 15.50120544 C111.69069946 15.51595665 111.69069946 15.51595665 110.17163086 15.53100586 C108.53979858 15.51650391 108.53979858 15.51650391 106.875 15.50170898 C105.15518921 15.50981346 105.15518921 15.50981346 103.40063477 15.51808167 C99.60016283 15.53061746 95.80044126 15.51404474 92 15.49609375 C89.36588501 15.49624862 86.73176979 15.49773567 84.09765625 15.50050354 C78.57282705 15.5032063 73.04821502 15.48972472 67.5234375 15.46655273 C61.13461095 15.43994236 54.74614753 15.43819552 48.35728455 15.4499411 C42.21323387 15.46071777 36.06933572 15.45443233 29.92529297 15.44038582 C27.30973697 15.43586003 24.69417028 15.4355443 22.07861328 15.43945122 C18.42718386 15.44235197 14.77635382 15.42590993 11.125 15.40405273 C10.03711182 15.40855438 8.94922363 15.41305603 7.82836914 15.41769409 C6.83571045 15.40778946 5.84305176 15.39788483 4.8203125 15.38768005 C3.95680176 15.38525016 3.09329102 15.38282026 2.20361328 15.38031673 C-0.47963869 14.91722022 -1.38262793 14.15674257 -3 12 C-3.14453125 9.84375 -3.14453125 9.84375 -2.8125 7.5 C-2.71582031 6.7265625 -2.61914062 5.953125 -2.51953125 5.15625 C-2 3 -2 3 0 0 Z " fill="#B29241" transform="translate(3,435)"/>
<path d="M0 0 C40.92 0 81.84 0 124 0 C127.45145631 9.2038835 127.45145631 9.2038835 126 13 C123.50431493 15.49568507 122.74437078 15.25251652 119.29994202 15.26069641 C117.81301598 15.27132362 117.81301598 15.27132362 116.29605103 15.28216553 C114.65882584 15.2784494 114.65882584 15.2784494 112.98852539 15.2746582 C111.84213089 15.27976913 110.69573639 15.28488007 109.51460266 15.29014587 C105.70890138 15.30409467 101.90338012 15.30308112 98.09765625 15.30078125 C95.46211173 15.30466525 92.82656785 15.3089993 90.19102478 15.31376648 C84.66029249 15.3219866 79.12961126 15.32106669 73.59887695 15.31567383 C67.20270987 15.30963307 60.8067627 15.32194542 54.41063315 15.3432439 C48.26180784 15.36296736 42.11308557 15.36603561 35.96423149 15.36250877 C33.34587525 15.36302356 30.72751562 15.3682905 28.10917854 15.37832069 C24.45290128 15.39060707 20.7971377 15.38393998 17.14086914 15.37231445 C15.5066803 15.38378006 15.5066803 15.38378006 13.83947754 15.39547729 C12.84537369 15.38846298 11.85126984 15.38144867 10.82704163 15.3742218 C9.96223207 15.37438954 9.0974225 15.37455729 8.20640659 15.37473011 C5.51073817 14.9169051 4.6614491 14.12877201 3 12 C2.05078125 9.84375 2.05078125 9.84375 1.3125 7.5 C1.06113281 6.7265625 0.80976563 5.953125 0.55078125 5.15625 C0 3 0 3 0 0 Z " fill="#B29241" transform="translate(314,435)"/>
<path d="M0 0 C30.36 0 60.72 0 92 0 C92.99 6.435 92.99 6.435 94 13 C94.99 15.97 94.99 15.97 96 19 C62.01 19 28.02 19 -7 19 C-4 9 -4 9 0 0 Z " fill="#B29241" transform="translate(82,225)"/>
<path d="M0 0 C40.26 0 80.52 0 122 0 C127 12 127 12 127 15 C86.74 15 46.48 15 5 15 C1 5 1 5 0 0 Z " fill="#B29241" transform="translate(296,382)"/>
<path d="M0 0 C0.89137382 0.00092179 1.78274763 0.00184359 2.70113277 0.00279331 C3.72062008 0.00141865 4.74010738 0.00004398 5.79048824 -0.00137234 C6.91833233 0.00222294 8.04617641 0.00581821 9.20819759 0.00952244 C10.38852566 0.00937641 11.56885372 0.00923038 12.7849493 0.00907993 C16.03067141 0.00965888 19.27635088 0.01468796 22.52206445 0.02165389 C25.91068065 0.02788821 29.29929761 0.02849129 32.68791866 0.0296793 C39.10880837 0.03279238 45.52968114 0.04100546 51.95056337 0.05102879 C59.25878857 0.06219063 66.56701457 0.06770055 73.87524617 0.07272422 C88.91259034 0.0831881 103.94991864 0.1007871 118.98725033 0.12304783 C118.69984091 1.498944 118.4070729 2.87372105 118.11225033 4.24804783 C117.94982845 5.01375095 117.78740658 5.77945408 117.62006283 6.56836033 C116.90269779 9.46438954 115.93073312 12.29259946 114.98725033 15.12304783 C74.39725033 15.12304783 33.80725033 15.12304783 -8.01274967 15.12304783 C-2.66995602 0.16322561 -2.66995602 0.16322561 0 0 Z " fill="#B29241" transform="translate(25.012749671936035,381.8769521713257)"/>
<path d="M0 0 C29.7 0 59.4 0 90 0 C92.31 6.27 94.62 12.54 97 19 C63.67 19 30.34 19 -4 19 C-3.01 15.7 -2.02 12.4 -1 9 C-0.67 6.03 -0.34 3.06 0 0 Z " fill="#B29241" transform="translate(269,225)"/>
<path d="M0 0 C29.7 0 59.4 0 90 0 C88.35 3.96 86.7 7.92 85 12 C84.34 14.31 83.68 16.62 83 19 C53.63 19 24.26 19 -6 19 C-4.69747123 12.48735615 -2.23381841 6.25469155 0 0 Z " fill="#B29241" transform="translate(91,199)"/>
<path d="M0 0 C28.71 0 57.42 0 87 0 C94 18 94 18 94 19 C65.29 19 36.58 19 7 19 C5.68 15.04 4.36 11.08 3 7 C2.01 4.69 1.02 2.38 0 0 Z " fill="#B29241" transform="translate(262,199)"/>
<path d="M0 0 C40.59 0 81.18 0 123 0 C128 12 128 12 128 13 C87.08 13 46.16 13 4 13 C0 2 0 2 0 0 Z " fill="#B29241" transform="translate(305,409)"/>
<path d="M0 0 C40.59 0 81.18 0 123 0 C121 9 121 9 120 13 C79.08 13 38.16 13 -4 13 C-1 3 -1 3 0 0 Z " fill="#B29241" transform="translate(12,409)"/>
<path d="M0 0 C0.86500122 -0.00852997 1.73000244 -0.01705994 2.62121582 -0.02584839 C3.56727188 -0.02494202 4.51332794 -0.02403564 5.48805237 -0.02310181 C6.98599838 -0.03317764 6.98599838 -0.03317764 8.51420593 -0.04345703 C11.82267704 -0.06248974 15.1309459 -0.06636377 18.43946838 -0.06851196 C20.73488449 -0.07493577 23.03029976 -0.08166381 25.32571411 -0.08868408 C30.14010009 -0.10066973 34.95441424 -0.10436353 39.76881409 -0.10317993 C45.94412831 -0.10297657 52.11898322 -0.13029131 58.2941885 -0.16472435 C63.03562545 -0.18693782 67.77695085 -0.19101919 72.51843452 -0.18996048 C74.79546252 -0.19232433 77.07249322 -0.20119169 79.34947014 -0.21662521 C82.53141032 -0.23617432 85.71234675 -0.23049059 88.89430237 -0.21841431 C89.8383342 -0.22965332 90.78236603 -0.24089233 91.75500488 -0.25247192 C95.42811281 -0.21696504 97.97329201 -0.18538753 101.1847229 1.67279053 C102.75587463 4.26742554 102.75587463 4.26742554 105.75587463 14.26742554 C67.14587463 14.26742554 28.53587463 14.26742554 -11.24412537 14.26742554 C-10.40692536 9.24422547 -9.74610522 6.5015453 -7.24412537 2.26742554 C-4.15266059 0.20644902 -3.49677344 0.01559359 0 0 Z " fill="#B29241" transform="translate(173.24412536621094,-0.267425537109375)"/>
</svg>
