<svg width="32" height="32" viewBox="0 0 32 32" fill="none" xmlns="http://www.w3.org/2000/svg">
<path d="M16 13.3334H18.6667V16H16V13.3334ZM24 12H25.3333V16H22.6667V13.3334H21.3333V12H20V10.6667H18.6667V9.33335H16V6.66669H20V8.00002H21.3333V9.33335H22.6667V10.6667H24V12Z" fill="currentColor"/>
<path d="M30.6666 10.6666V16H27.9999V10.6666H26.6666V9.33331H25.3333V7.99998H23.9999V6.66665H22.6666V5.33331H21.3333V3.99998H15.9999V1.33331H21.3333V2.66665H23.9999V3.99998H25.3333V5.33331H26.6666V6.66665H27.9999V7.99998H29.3333V10.6666H30.6666ZM29.3333 22.6666V21.3333H27.9999V20H25.3333V18.6666H21.3333V20H19.9999V21.3333H15.9999V20H14.6666V18.6666H13.3333V17.3333H11.9999V16H10.6666V12H11.9999V10.6666H13.3333V6.66665H11.9999V3.99998H10.6666V2.66665H9.33325V1.33331H5.33325V2.66665H2.66659V3.99998H1.33325V10.6666H2.66659V16H3.99992V18.6666H5.33325V20H6.66659V21.3333H7.99992V22.6666H9.33325V24H10.6666V25.3333H11.9999V26.6666H13.3333V28H15.9999V29.3333H21.3333V30.6666H27.9999V29.3333H29.3333V26.6666H30.6666V22.6666H29.3333ZM26.6666 26.6666V28H21.3333V26.6666H15.9999V25.3333H13.3333V24H11.9999V22.6666H10.6666V21.3333H9.33325V20H7.99992V18.6666H6.66659V16H5.33325V10.6666H3.99992V5.33331H5.33325V3.99998H9.33325V6.66665H10.6666V10.6666H9.33325V12H7.99992V16H9.33325V17.3333H10.6666V18.6666H11.9999V20H13.3333V21.3333H14.6666V22.6666H15.9999V24H19.9999V22.6666H21.3333V21.3333H25.3333V22.6666H27.9999V26.6666H26.6666Z" fill="currentColor"/>
</svg>
