<svg width="32" height="32" viewBox="0 0 32 32" fill="none" xmlns="http://www.w3.org/2000/svg">
<path d="M29.3333 12V9.33331H27.9999V6.66665H26.6666V5.33331H25.3333V3.99998H22.6666V2.66665H19.9999V1.33331H11.9999V2.66665H9.33325V3.99998H6.66659V5.33331H5.33325V6.66665H3.99992V9.33331H2.66659V12H1.33325V20H2.66659V22.6666H3.99992V25.3333H5.33325V26.6666H6.66659V28H9.33325V29.3333H11.9999V30.6666H19.9999V29.3333H22.6666V28H25.3333V26.6666H26.6666V25.3333H27.9999V22.6666H29.3333V20H30.6666V12H29.3333ZM19.9999 12V13.3333H21.3333V18.6666H19.9999V20H18.6666V21.3333H13.3333V20H11.9999V18.6666H10.6666V13.3333H11.9999V12H13.3333V10.6666H18.6666V12H19.9999ZM3.99992 12H5.33325V9.33331H6.66659V7.99998H7.99992V6.66665H9.33325V5.33331H11.9999V3.99998H15.9999V7.99998H11.9999V9.33331H10.6666V10.6666H9.33325V12H7.99992V16H3.99992V12Z" fill="currentColor"/>
<path d="M18.6666 14.6666V17.3333H17.3333V18.6666H14.6666V17.3333H13.3333V14.6666H14.6666V13.3333H17.3333V14.6666H18.6666Z" fill="currentColor"/>
</svg>
