<svg width="32" height="32" viewBox="0 0 32 32" fill="none" xmlns="http://www.w3.org/2000/svg">
<path d="M11.9999 1.33331H13.3333V2.66665H11.9999V1.33331ZM11.9999 2.66665V3.99998H10.6666V6.66665H9.33325V10.6666H2.66659V9.33331H3.99992V6.66665H5.33325V5.33331H6.66659V3.99998H9.33325V2.66665H11.9999ZM17.3333 2.66665H18.6666V5.33331H19.9999V7.99998H21.3333V10.6666H10.6666V7.99998H11.9999V5.33331H13.3333V2.66665H14.6666V1.33331H17.3333V2.66665ZM18.6666 1.33331H19.9999V2.66665H18.6666V1.33331ZM29.3333 9.33331V10.6666H22.6666V6.66665H21.3333V3.99998H19.9999V2.66665H22.6666V3.99998H25.3333V5.33331H26.6666V6.66665H27.9999V9.33331H29.3333ZM22.6666 13.3333V18.6666H21.3333V20H10.6666V18.6666H9.33325V13.3333H10.6666V12H21.3333V13.3333H22.6666ZM1.33325 12H9.33325V13.3333H7.99992V18.6666H9.33325V20H1.33325V12ZM30.6666 12V20H22.6666V18.6666H23.9999V13.3333H22.6666V12H30.6666ZM29.3333 21.3333V22.6666H27.9999V25.3333H26.6666V26.6666H25.3333V28H22.6666V29.3333H19.9999V28H21.3333V25.3333H22.6666V21.3333H29.3333ZM11.9999 29.3333H13.3333V30.6666H11.9999V29.3333ZM11.9999 28V29.3333H9.33325V28H6.66659V26.6666H5.33325V25.3333H3.99992V22.6666H2.66659V21.3333H9.33325V25.3333H10.6666V28H11.9999ZM18.6666 29.3333H19.9999V30.6666H18.6666V29.3333ZM18.6666 29.3333H17.3333V30.6666H14.6666V29.3333H13.3333V26.6666H11.9999V24H10.6666V21.3333H21.3333V24H19.9999V26.6666H18.6666V29.3333Z" fill="currentColor"/>
</svg>
