<svg width="32" height="32" viewBox="0 0 32 32" fill="none" xmlns="http://www.w3.org/2000/svg">
<path d="M27.9999 13.3333V12H26.6666V9.33331H27.9999V6.66665H26.6666V5.33331H25.3333V3.99998H22.6666V5.33331H19.9999V3.99998H18.6666V1.33331H13.3333V3.99998H11.9999V5.33331H9.33325V3.99998H6.66658V5.33331H5.33325V6.66665H3.99992V9.33331H5.33325V12H3.99992V13.3333H1.33325V18.6666H3.99992V20H5.33325V22.6666H3.99992V25.3333H5.33325V26.6666H6.66658V28H9.33325V26.6666H11.9999V28H13.3333V30.6666H18.6666V28H19.9999V26.6666H22.6666V28H25.3333V26.6666H26.6666V25.3333H27.9999V22.6666H26.6666V20H27.9999V18.6666H30.6666V13.3333H27.9999ZM27.9999 17.3333H26.6666V18.6666H25.3333V20H23.9999V22.6666H25.3333V25.3333H22.6666V24H19.9999V25.3333H18.6666V26.6666H17.3333V28H14.6666V26.6666H13.3333V25.3333H11.9999V24H9.33325V25.3333H6.66658V22.6666H7.99992V20H6.66658V18.6666H5.33325V17.3333H3.99992V14.6666H5.33325V13.3333H6.66658V12H7.99992V9.33331H6.66658V6.66665H9.33325V7.99998H11.9999V6.66665H13.3333V5.33331H14.6666V3.99998H17.3333V5.33331H18.6666V6.66665H19.9999V7.99998H22.6666V6.66665H25.3333V9.33331H23.9999V12H25.3333V13.3333H26.6666V14.6666H27.9999V17.3333Z" fill="currentColor"/>
<path d="M21.3333 13.3333V12H19.9999V10.6666H18.6666V9.33331H13.3333V10.6666H11.9999V12H10.6666V13.3333H9.33325V18.6666H10.6666V20H11.9999V21.3333H13.3333V22.6666H18.6666V21.3333H19.9999V20H21.3333V18.6666H22.6666V13.3333H21.3333ZM19.9999 18.6666H18.6666V20H13.3333V18.6666H11.9999V13.3333H13.3333V12H18.6666V13.3333H19.9999V18.6666Z" fill="currentColor"/>
</svg>
